# xmcd CD database file
#
# Track frame offsets:
#	150
#	21300
#	41550
#	70875
#	94800
#	115950
#	140700
#	167925
#
# Disc length: 2490 seconds
#
# Revision: 2
# Processed by: cddbd v1.5.2PL0 Copyright (c) Steve Scherf et al.
# Submitted via: CDex 1.51
#
DISCID=7309b808
DTITLE=Scott Hamilton - Tenorshoes
DYEAR=1900
DGENRE=Jazz
TTITLE0=I Should Care
TTITLE1=Falling In Love With Love
TTITLE2=The Shadow Of Your Smile
TTITLE3=The Nearness Of You
TTITLE4=How High The Moon
TTITLE5=Our Delight
TTITLE6=My Foolish Heart
TTITLE7=O.K
EXTD=
EXTT0=
EXTT1=
EXTT2=
EXTT3=
EXTT4=
EXTT5=
EXTT6=
EXTT7=
PLAYORDER=
